<?xml version="1.0" encoding="UTF-8" standalone="no"?><!DOCTYPE svg PUBLIC "-//W3C//DTD SVG 1.1//EN" "http://www.w3.org/Graphics/SVG/1.1/DTD/svg11.dtd"><svg width="100%" height="100%" viewBox="0 0 20 20" version="1.1" xmlns="http://www.w3.org/2000/svg" xmlns:xlink="http://www.w3.org/1999/xlink" xml:space="preserve" xmlns:serif="http://www.serif.com/" style="fill-rule:evenodd;clip-rule:evenodd;stroke-linejoin:round;stroke-miterlimit:2;"><path d="M6.69,15.755c-0,0.081 -0.093,0.145 -0.21,0.145c-0.133,0.012 -0.226,-0.052 -0.226,-0.145c0,-0.08 0.093,-0.145 0.21,-0.145c0.121,-0.012 0.226,0.052 0.226,0.145Zm-1.255,-0.181c-0.028,0.08 0.053,0.173 0.174,0.197c0.105,0.041 0.226,0 0.25,-0.08c0.024,-0.081 -0.053,-0.174 -0.174,-0.21c-0.104,-0.028 -0.221,0.012 -0.25,0.093Zm1.783,-0.069c-0.117,0.028 -0.198,0.105 -0.186,0.198c0.012,0.08 0.117,0.133 0.238,0.105c0.117,-0.029 0.198,-0.105 0.186,-0.186c-0.012,-0.076 -0.121,-0.129 -0.238,-0.117Zm2.653,-15.451c-5.593,-0 -9.871,4.246 -9.871,9.838c0,4.472 2.815,8.299 6.835,9.645c0.516,0.093 0.697,-0.225 0.697,-0.487c0,-0.25 -0.012,-1.629 -0.012,-2.476c0,-0 -2.822,0.605 -3.415,-1.202c-0,0 -0.46,-1.173 -1.121,-1.476c-0,0 -0.924,-0.633 0.064,-0.621c0,0 1.004,0.081 1.557,1.041c0.883,1.556 2.363,1.109 2.939,0.842c0.093,-0.645 0.355,-1.092 0.646,-1.358c-2.255,-0.25 -4.529,-0.577 -4.529,-4.456c0,-1.109 0.307,-1.665 0.952,-2.375c-0.105,-0.262 -0.448,-1.343 0.105,-2.738c0.842,-0.262 2.782,1.089 2.782,1.089c0.806,-0.226 1.673,-0.343 2.532,-0.343c0.859,-0 1.726,0.117 2.533,0.343c-0,-0 1.939,-1.355 2.782,-1.089c0.552,1.399 0.209,2.476 0.105,2.738c0.645,0.714 1.04,1.27 1.04,2.375c-0,3.891 -2.375,4.202 -4.629,4.456c0.371,0.318 0.685,0.923 0.685,1.871c0,1.358 -0.012,3.04 -0.012,3.37c0,0.263 0.186,0.581 0.698,0.488c4.032,-1.338 6.766,-5.165 6.766,-9.637c0,-5.592 -4.536,-9.838 -10.129,-9.838Zm-5.952,13.907c-0.052,0.04 -0.04,0.133 0.029,0.21c0.064,0.064 0.157,0.092 0.209,0.04c0.053,-0.04 0.041,-0.133 -0.028,-0.21c-0.064,-0.064 -0.157,-0.093 -0.21,-0.04Zm-0.435,-0.327c-0.028,0.053 0.012,0.117 0.093,0.157c0.064,0.041 0.145,0.029 0.173,-0.028c0.028,-0.052 -0.012,-0.117 -0.093,-0.157c-0.08,-0.024 -0.145,-0.012 -0.173,0.028Zm1.306,1.436c-0.064,0.052 -0.04,0.173 0.053,0.25c0.092,0.092 0.209,0.105 0.262,0.04c0.052,-0.052 0.028,-0.173 -0.053,-0.25c-0.088,-0.093 -0.209,-0.105 -0.262,-0.04Zm-0.459,-0.593c-0.065,0.04 -0.065,0.145 -0,0.238c0.064,0.093 0.173,0.133 0.225,0.093c0.065,-0.053 0.065,-0.158 0,-0.25c-0.056,-0.093 -0.161,-0.133 -0.225,-0.081Z" style="fill-rule:nonzero;"/></svg>