<svg viewBox="0 0 128 128" xmlns="http://www.w3.org/2000/svg" xml:space="preserve" style="fill-rule:evenodd;clip-rule:evenodd;stroke-linejoin:round;stroke-miterlimit:2"><path d="m96.506 11.449-3.695-4.248 3.415-4.248h2.568l-3.488 4.248 3.876 4.248h-2.676Z" style="fill-rule:nonzero" transform="matrix(6.2328 0 0 6.2328 -504.157 18.995)"/><path d="M95.637 6.889V2.953h3.157l-3.157 3.936Z" style="fill-rule:nonzero" transform="matrix(6.2328 0 0 6.2328 -523.955 18.998)"/><path d="M41.882 90.579c14.818-.577 26.386-12.956 25.814-27.626-.404-10.38-6.78-19.145-15.724-23.178L19.55 80.233a26.928 26.928 0 0 0 22.33 10.346ZM16.664 75.622c.069.141 1.142 2.102 1.142 2.102L49.154 38.71s-4.398-1.482-9.342-1.29c-14.82.574-26.387 12.955-25.815 27.625a26.26 26.26 0 0 0 2.667 10.577Z"/></svg>